# xmcd CD database file
#
# Track frame offsets:
#	150
#	11367
#	21152
#	33315
#	46590
#	62960
#	75190
#	85250
#	98190
#	111155
#	120725
#	132175
#	145205
#	157882
#	171060
#	181625
#	192380
#	202622
#	214412
#	226632
#	235460
#	248957
#	263755
#	271790
#
# Disc length: 3779 seconds
#
# Revision: 1
# Processed by: cddbd v1.5.1PL2 Copyright (c) Steve Scherf et al.
# Submitted via: CDex 1.51
#
DISCID=2f0ec118
DTITLE=Carl Smith - The 'Sixties Hits of Carl Smith
DYEAR=1900
DGENRE=Country
TTITLE0=Ten Thousand Drums
TTITLE1=Make the Waterwheel Roll
TTITLE2=Cut Across Shorty
TTITLE3=Kisses Never Lie
TTITLE4=Airmail To Heaven
TTITLE5=Things That Mean The Most
TTITLE6=The Best Dressed Begger 
TTITLE7=In The Back Room Tonight
TTITLE8=I Almost Forgot Her Today
TTITLE9=Triangle
TTITLE10=The Pillow That Whispers
TTITLE11=Take My Ring Off Your Finger
TTITLE12=Lonely Girl
TTITLE13=When Its Over
TTITLE14=Man With a Plan
TTITLE15=You Better Be Better To Me
TTITLE16=Deep Water
TTITLE17=Foggy River
TTITLE18=You Ought To Hear Me Cry
TTITLE19=Good Deal, Lucille
TTITLE20=I Love You Because
TTITLE21=Heartbreak Avenue
TTITLE22=Pull My String And Wind Me Up
TTITLE23=How I Love Them Old Songs
EXTD=
EXTT0=
EXTT1=
EXTT2=
EXTT3=
EXTT4=
EXTT5=
EXTT6=
EXTT7=
EXTT8=
EXTT9=
EXTT10=
EXTT11=
EXTT12=
EXTT13=
EXTT14=
EXTT15=
EXTT16=
EXTT17=
EXTT18=
EXTT19=
EXTT20=
EXTT21=
EXTT22=
EXTT23=
PLAYORDER=
